<svg width="65" height="38" viewBox="0 0 65 38" fill="none" xmlns="http://www.w3.org/2000/svg">
<path d="M12.978 31.584C10.99 31.584 9.19802 31.276 7.60202 30.66C6.00602 30.016 4.64802 29.078 3.52802 27.846C2.40802 26.586 1.54002 25.032 0.924025 23.184C0.308024 21.308 2.44454e-05 19.124 2.44454e-05 16.632C2.44454e-05 14.168 0.308024 11.984 0.924025 10.08C1.54002 8.148 2.40802 6.538 3.52802 5.25C4.64802 3.934 6.00602 2.94 7.60202 2.268C9.19802 1.596 10.99 1.26 12.978 1.26C15.694 1.26 17.934 1.82 19.698 2.94C21.462 4.032 22.876 5.768 23.94 8.148L18.438 11.004C18.046 9.772 17.43 8.792 16.59 8.064C15.778 7.308 14.574 6.93 12.978 6.93C11.102 6.93 9.59003 7.546 8.44203 8.778C7.32202 9.982 6.76202 11.746 6.76202 14.07V18.774C6.76202 21.098 7.32202 22.876 8.44203 24.108C9.59003 25.312 11.102 25.914 12.978 25.914C14.546 25.914 15.792 25.494 16.716 24.654C17.668 23.786 18.368 22.75 18.816 21.546L24.024 24.57C22.932 26.81 21.49 28.546 19.698 29.778C17.934 30.982 15.694 31.584 12.978 31.584ZM35.3092 37.422L47.8252 1.43051e-06H52.9492L40.4332 37.422H35.3092ZM46.6295 37.422L59.1455 1.43051e-06H64.2695L51.7535 37.422H46.6295Z" fill="black"/>
</svg>
