<svg width="400" height="100" viewBox="0 0 400 100" fill="none" xmlns="http://www.w3.org/2000/svg">
<g clip-path="url(#clip0_4_6)">
<g filter="url(#filter0_d_4_6)">
<path d="M46.1596 75.248L60.4636 32.48H66.3196L52.0156 75.248H46.1596ZM59.0971 75.248L73.4011 32.48H79.2571L64.9531 75.248H59.0971ZM97.1851 68.576C94.9131 68.576 92.8651 68.224 91.0411 67.52C89.2171 66.784 87.6651 65.712 86.3851 64.304C85.1051 62.864 84.1131 61.088 83.4091 58.976C82.7051 56.832 82.3531 54.336 82.3531 51.488C82.3531 48.672 82.7051 46.176 83.4091 44C84.1131 41.792 85.1051 39.952 86.3851 38.48C87.6651 36.976 89.2171 35.84 91.0411 35.072C92.8651 34.304 94.9131 33.92 97.1851 33.92C100.289 33.92 102.849 34.56 104.865 35.84C106.881 37.088 108.497 39.072 109.713 41.792L103.425 45.056C102.977 43.648 102.273 42.528 101.313 41.696C100.385 40.832 99.0091 40.4 97.1851 40.4C95.0411 40.4 93.3131 41.104 92.0011 42.512C90.7211 43.888 90.0811 45.904 90.0811 48.56V53.936C90.0811 56.592 90.7211 58.624 92.0011 60.032C93.3131 61.408 95.0411 62.096 97.1851 62.096C98.9771 62.096 100.401 61.616 101.457 60.656C102.545 59.664 103.345 58.48 103.857 57.104L109.809 60.56C108.561 63.12 106.913 65.104 104.865 66.512C102.849 67.888 100.289 68.576 97.1851 68.576ZM124.755 68.576C122.899 68.576 121.235 68.272 119.763 67.664C118.323 67.056 117.091 66.176 116.067 65.024C115.075 63.872 114.307 62.48 113.763 60.848C113.219 59.216 112.947 57.392 112.947 55.376C112.947 53.36 113.219 51.536 113.763 49.904C114.307 48.272 115.075 46.896 116.067 45.776C117.091 44.624 118.323 43.744 119.763 43.136C121.235 42.528 122.899 42.224 124.755 42.224C126.611 42.224 128.259 42.528 129.699 43.136C131.171 43.744 132.403 44.624 133.395 45.776C134.419 46.896 135.203 48.272 135.747 49.904C136.291 51.536 136.563 53.36 136.563 55.376C136.563 57.392 136.291 59.216 135.747 60.848C135.203 62.48 134.419 63.872 133.395 65.024C132.403 66.176 131.171 67.056 129.699 67.664C128.259 68.272 126.611 68.576 124.755 68.576ZM124.755 62.96C126.163 62.96 127.251 62.528 128.019 61.664C128.787 60.8 129.171 59.568 129.171 57.968V52.832C129.171 51.232 128.787 50 128.019 49.136C127.251 48.272 126.163 47.84 124.755 47.84C123.347 47.84 122.259 48.272 121.491 49.136C120.723 50 120.339 51.232 120.339 52.832V57.968C120.339 59.568 120.723 60.8 121.491 61.664C122.259 62.528 123.347 62.96 124.755 62.96ZM141.625 68V42.8H148.729V47.072H149.017C149.465 45.728 150.233 44.592 151.321 43.664C152.409 42.704 153.897 42.224 155.785 42.224C157.513 42.224 158.985 42.656 160.201 43.52C161.417 44.384 162.297 45.648 162.841 47.312H162.984C163.209 46.608 163.545 45.952 163.993 45.344C164.473 44.704 165.049 44.16 165.721 43.712C166.393 43.264 167.145 42.912 167.977 42.656C168.809 42.368 169.705 42.224 170.665 42.224C173.097 42.224 174.953 43.088 176.233 44.816C177.545 46.544 178.201 49.008 178.201 52.208V68H171.097V52.784C171.097 49.584 169.945 47.984 167.641 47.984C166.585 47.984 165.625 48.288 164.76 48.896C163.897 49.504 163.465 50.432 163.465 51.68V68H156.361V52.784C156.361 49.584 155.209 47.984 152.905 47.984C152.393 47.984 151.881 48.064 151.369 48.224C150.889 48.352 150.441 48.576 150.025 48.896C149.641 49.216 149.321 49.616 149.065 50.096C148.841 50.544 148.729 51.072 148.729 51.68V68H141.625ZM184.515 68V42.8H191.619V47.072H191.907C192.355 45.728 193.123 44.592 194.211 43.664C195.299 42.704 196.787 42.224 198.675 42.224C200.403 42.224 201.875 42.656 203.091 43.52C204.307 44.384 205.187 45.648 205.731 47.312H205.875C206.099 46.608 206.435 45.952 206.883 45.344C207.363 44.704 207.939 44.16 208.611 43.712C209.283 43.264 210.035 42.912 210.867 42.656C211.699 42.368 212.595 42.224 213.555 42.224C215.987 42.224 217.843 43.088 219.123 44.816C220.435 46.544 221.091 49.008 221.091 52.208V68H213.987V52.784C213.987 49.584 212.835 47.984 210.531 47.984C209.475 47.984 208.515 48.288 207.651 48.896C206.787 49.504 206.355 50.432 206.355 51.68V68H199.251V52.784C199.251 49.584 198.099 47.984 195.795 47.984C195.283 47.984 194.771 48.064 194.259 48.224C193.779 48.352 193.331 48.576 192.915 48.896C192.531 49.216 192.211 49.616 191.955 50.096C191.731 50.544 191.619 51.072 191.619 51.68V68H184.515ZM237.918 68.576C235.998 68.576 234.286 68.272 232.782 67.664C231.278 67.024 229.998 66.144 228.942 65.024C227.918 63.872 227.134 62.48 226.59 60.848C226.078 59.216 225.822 57.392 225.822 55.376C225.822 53.392 226.078 51.6 226.59 50C227.102 48.368 227.854 46.976 228.846 45.824C229.87 44.672 231.118 43.792 232.59 43.184C234.062 42.544 235.742 42.224 237.63 42.224C239.71 42.224 241.486 42.576 242.958 43.28C244.462 43.984 245.678 44.928 246.606 46.112C247.566 47.296 248.254 48.672 248.67 50.24C249.118 51.776 249.342 53.392 249.342 55.088V57.2H233.166V57.584C233.166 59.248 233.614 60.576 234.51 61.568C235.406 62.528 236.814 63.008 238.734 63.008C240.206 63.008 241.406 62.72 242.334 62.144C243.262 61.536 244.126 60.816 244.926 59.984L248.478 64.4C247.358 65.712 245.886 66.736 244.062 67.472C242.27 68.208 240.222 68.576 237.918 68.576ZM237.774 47.456C236.334 47.456 235.198 47.936 234.366 48.896C233.566 49.824 233.166 51.072 233.166 52.64V53.024H241.998V52.592C241.998 51.056 241.646 49.824 240.942 48.896C240.27 47.936 239.214 47.456 237.774 47.456ZM254.359 68V42.8H261.463V47.072H261.751C262.199 45.76 262.983 44.624 264.103 43.664C265.223 42.704 266.775 42.224 268.759 42.224C271.351 42.224 273.303 43.088 274.615 44.816C275.959 46.544 276.631 49.008 276.631 52.208V68H269.527V52.784C269.527 51.152 269.271 49.952 268.759 49.184C268.247 48.384 267.335 47.984 266.023 47.984C265.447 47.984 264.887 48.064 264.343 48.224C263.799 48.352 263.303 48.576 262.855 48.896C262.439 49.216 262.103 49.616 261.847 50.096C261.591 50.544 261.463 51.072 261.463 51.68V68H254.359ZM291.785 68C289.321 68 287.449 67.376 286.169 66.128C284.921 64.88 284.297 63.056 284.297 60.656V48.32H280.745V42.8H282.521C283.481 42.8 284.137 42.576 284.489 42.128C284.841 41.648 285.017 40.976 285.017 40.112V35.984H291.401V42.8H296.393V48.32H291.401V62.48H296.009V68H291.785ZM311.652 68.576C309.732 68.576 308.02 68.272 306.516 67.664C305.012 67.024 303.732 66.144 302.676 65.024C301.652 63.872 300.868 62.48 300.324 60.848C299.812 59.216 299.556 57.392 299.556 55.376C299.556 53.392 299.812 51.6 300.324 50C300.836 48.368 301.588 46.976 302.58 45.824C303.604 44.672 304.852 43.792 306.324 43.184C307.796 42.544 309.476 42.224 311.364 42.224C313.444 42.224 315.22 42.576 316.692 43.28C318.196 43.984 319.412 44.928 320.34 46.112C321.3 47.296 321.988 48.672 322.404 50.24C322.852 51.776 323.076 53.392 323.076 55.088V57.2H306.9V57.584C306.9 59.248 307.348 60.576 308.244 61.568C309.14 62.528 310.548 63.008 312.468 63.008C313.94 63.008 315.14 62.72 316.068 62.144C316.996 61.536 317.86 60.816 318.66 59.984L322.212 64.4C321.092 65.712 319.62 66.736 317.796 67.472C316.004 68.208 313.956 68.576 311.652 68.576ZM311.508 47.456C310.068 47.456 308.932 47.936 308.1 48.896C307.3 49.824 306.9 51.072 306.9 52.64V53.024H315.732V52.592C315.732 51.056 315.38 49.824 314.676 48.896C314.004 47.936 312.948 47.456 311.508 47.456ZM343.549 63.776H343.309C343.117 64.448 342.813 65.088 342.397 65.696C341.981 66.272 341.469 66.784 340.861 67.232C340.285 67.648 339.613 67.968 338.845 68.192C338.109 68.448 337.341 68.576 336.541 68.576C333.341 68.576 330.925 67.456 329.293 65.216C327.661 62.944 326.845 59.664 326.845 55.376C326.845 51.088 327.661 47.824 329.293 45.584C330.925 43.344 333.341 42.224 336.541 42.224C338.173 42.224 339.613 42.672 340.861 43.568C342.141 44.464 342.957 45.616 343.309 47.024H343.549V32.48H350.653V68H343.549V63.776ZM338.893 62.816C340.237 62.816 341.341 62.496 342.205 61.856C343.101 61.184 343.549 60.272 343.549 59.12V51.68C343.549 50.528 343.101 49.632 342.205 48.992C341.341 48.32 340.237 47.984 338.893 47.984C337.549 47.984 336.429 48.464 335.533 49.424C334.669 50.352 334.237 51.616 334.237 53.216V57.584C334.237 59.184 334.669 60.464 335.533 61.424C336.429 62.352 337.549 62.816 338.893 62.816Z" fill="black"/>
</g>
</g>
<defs>
<filter id="filter0_d_4_6" x="42.1596" y="32.48" width="312.494" height="50.768" filterUnits="userSpaceOnUse" color-interpolation-filters="sRGB">
<feFlood flood-opacity="0" result="BackgroundImageFix"/>
<feColorMatrix in="SourceAlpha" type="matrix" values="0 0 0 0 0 0 0 0 0 0 0 0 0 0 0 0 0 0 127 0" result="hardAlpha"/>
<feOffset dy="4"/>
<feGaussianBlur stdDeviation="2"/>
<feComposite in2="hardAlpha" operator="out"/>
<feColorMatrix type="matrix" values="0 0 0 0 0 0 0 0 0 0 0 0 0 0 0 0 0 0 0.25 0"/>
<feBlend mode="normal" in2="BackgroundImageFix" result="effect1_dropShadow_4_6"/>
<feBlend mode="normal" in="SourceGraphic" in2="effect1_dropShadow_4_6" result="shape"/>
</filter>
<clipPath id="clip0_4_6">
<rect width="400" height="100" fill="white"/>
</clipPath>
</defs>
</svg>
